<svg width="100" height="82" viewBox="0 0 100 82" fill="none" xmlns="http://www.w3.org/2000/svg">
<path d="M5.35156 37.9376C2.40234 37.9376 0 40.34 0 43.2892C0 57.0587 8.67188 68.8165 20.8203 73.4063L21.1719 76.2188C21.5625 79.3438 24.2383 81.6876 27.3828 81.6876H72.5977C75.7617 81.6876 78.418 79.3438 78.8086 76.2188L79.1406 73.3868C91.3086 68.8165 99.9805 57.0587 99.9805 43.2892C99.9805 40.34 97.5781 37.9376 94.6289 37.9376H5.35156Z" fill="#00ADB5"/>
<path d="M19 27.556C20.08 28.684 21.196 29.716 22.348 30.652L21.952 31.012L21.376 31.588C21.328 31.636 21.268 31.696 21.196 31.768C21.124 31.84 21.028 31.936 20.908 32.056C20.788 32.176 20.62 32.344 20.404 32.56C20.188 32.752 19.9 33.004 19.54 33.316L19.504 33.28C18.784 32.536 18.028 31.828 17.236 31.156C16.468 30.46 15.7 29.752 14.932 29.032C14.164 28.312 13.396 27.568 12.628 26.8C11.86 26.032 11.14 25.192 10.468 24.28C10.924 23.704 11.428 23.128 11.98 22.552C12.532 21.952 13.108 21.352 13.708 20.752C14.308 20.128 14.908 19.516 15.508 18.916C16.108 18.292 16.684 17.692 17.236 17.116C17.596 16.732 17.944 16.372 18.28 16.036C18.616 15.676 18.952 15.328 19.288 14.992C19.504 15.112 19.72 15.292 19.936 15.532C20.152 15.748 20.38 15.976 20.62 16.216C20.86 16.456 21.1 16.696 21.34 16.936C21.58 17.152 21.808 17.332 22.024 17.476C21.664 17.932 21.22 18.436 20.692 18.988C20.164 19.54 19.6 20.128 19 20.752C18.424 21.352 17.836 21.964 17.236 22.588C16.66 23.212 16.144 23.812 15.688 24.388C16.816 25.372 17.92 26.428 19 27.556ZM30.9621 27.484C30.8421 27.844 30.7101 28.204 30.5661 28.564L28.5141 33.748C28.4661 33.844 28.4301 33.904 28.4061 33.928C28.2621 33.952 28.0941 33.976 27.9021 34C27.7341 34 27.4821 34 27.1461 34C26.8341 34 26.4141 34 25.8861 34C25.3821 34 24.7221 34.012 23.9061 34.036H23.8701C23.7741 34.036 23.7621 33.88 23.8341 33.568C23.9061 33.256 24.0021 32.908 24.1221 32.524C24.2661 32.14 24.4101 31.78 24.5541 31.444C24.6981 31.084 24.7821 30.856 24.8061 30.76C24.9741 30.232 25.1421 29.704 25.3101 29.176C25.5021 28.648 25.7181 28.12 25.9581 27.592C26.0061 27.424 26.0661 27.208 26.1381 26.944C26.2341 26.68 26.3901 26.224 26.6061 25.576C26.8461 24.928 27.1821 24.028 27.6141 22.876C28.0461 21.724 28.6221 20.176 29.3421 18.232C29.6061 17.536 29.8341 16.84 30.0261 16.144C30.2421 15.448 30.4701 14.752 30.7101 14.056C30.7341 14.008 30.8061 13.816 30.9261 13.48C31.0461 13.144 31.1901 12.724 31.3581 12.22C31.5501 11.692 31.7421 11.104 31.9341 10.456C32.1261 9.808 32.3061 9.148 32.4741 8.476C32.8101 8.548 33.1941 8.584 33.6261 8.584C34.0581 8.56 34.4901 8.536 34.9221 8.512C35.3541 8.488 35.7741 8.488 36.1821 8.512C36.5901 8.536 36.9381 8.62 37.2261 8.764C37.1781 8.884 37.1421 8.992 37.1181 9.088C37.0941 9.16 37.0581 9.268 37.0101 9.412C36.9141 9.748 36.7461 10.312 36.5061 11.104C36.2661 11.872 35.9061 13.048 35.4261 14.632C35.1861 15.304 34.9461 15.976 34.7061 16.648C34.4661 17.296 34.2381 17.944 34.0221 18.592C33.5661 19.912 33.1221 21.22 32.6901 22.516C32.2821 23.812 31.8381 25.108 31.3581 26.404C31.2381 26.764 31.1061 27.124 30.9621 27.484ZM55.1581 31.048C55.6861 31.96 56.1301 32.908 56.4901 33.892H56.5261C55.6861 33.892 54.7501 33.928 53.7181 34C52.6861 34.048 51.6301 34.036 50.5501 33.964H50.5141C50.2741 33.412 49.9741 32.752 49.6141 31.984C49.2541 31.216 48.8581 30.412 48.4261 29.572C47.9941 28.732 47.5261 27.904 47.0221 27.088C46.5181 26.272 46.0141 25.552 45.5101 24.928L45.4381 24.82C45.3661 25.372 45.3301 26.056 45.3301 26.872C45.3301 27.664 45.3421 28.492 45.3661 29.356C45.4141 30.196 45.4621 31 45.5101 31.768C45.5581 32.536 45.5941 33.148 45.6181 33.604C45.2101 33.772 44.6701 33.88 43.9981 33.928C43.3501 33.976 42.7021 34 42.0541 34C41.4061 34.024 40.8181 34.024 40.2901 34C39.7861 33.976 39.4741 33.976 39.3541 34C39.4021 34 39.4381 33.676 39.4621 33.028C39.4861 32.356 39.4981 31.48 39.4981 30.4C39.4981 29.32 39.4981 28.084 39.4981 26.692C39.4981 25.276 39.4861 23.824 39.4621 22.336C39.4621 20.824 39.4381 19.336 39.3901 17.872C39.3661 16.384 39.3421 15.028 39.3181 13.804C39.2941 12.556 39.2581 11.5 39.2101 10.636C39.1861 9.748 39.1501 9.148 39.1021 8.836C40.4461 8.644 41.9221 8.464 43.5301 8.296C45.1381 8.128 46.8181 8.14 48.5701 8.332C49.9861 8.404 51.2581 8.812 52.3861 9.556C53.5141 10.3 54.3901 11.224 55.0141 12.328C55.6381 13.432 55.9621 14.656 55.9861 16C56.0341 17.32 55.6861 18.604 54.9421 19.852C54.4861 20.716 53.8741 21.436 53.1061 22.012C52.3621 22.588 51.4141 22.912 50.2621 22.984H50.1181H50.0821V23.02C50.5861 23.908 51.1381 24.796 51.7381 25.684C52.3381 26.548 52.9261 27.424 53.5021 28.312C54.0781 29.2 54.6301 30.112 55.1581 31.048ZM46.8421 13.336C46.0261 13.36 45.1981 13.54 44.3581 13.876C44.3821 14.188 44.3941 14.548 44.3941 14.956C44.4181 15.34 44.4301 15.736 44.4301 16.144C44.4301 16.552 44.4301 16.948 44.4301 17.332C44.4541 17.716 44.4901 18.04 44.5381 18.304H44.5741C45.1261 18.352 45.7261 18.388 46.3741 18.412C47.0221 18.436 47.6341 18.4 48.2101 18.304C48.6661 18.208 49.0141 17.98 49.2541 17.62C49.5181 17.236 49.6741 16.828 49.7221 16.396C49.7701 15.94 49.7221 15.496 49.5781 15.064C49.4341 14.608 49.1941 14.248 48.8581 13.984C48.3301 13.504 47.6581 13.288 46.8421 13.336ZM70.5149 21.724C70.5629 21.82 70.6469 21.94 70.7669 22.084C71.1509 22.564 71.5109 23.044 71.8469 23.524C72.2069 23.98 72.5069 24.472 72.7469 25C73.0109 25.504 73.1909 26.068 73.2869 26.692C73.3829 27.316 73.3589 28.012 73.2149 28.78C73.0229 29.908 72.6509 30.832 72.0989 31.552C71.5709 32.248 70.9229 32.788 70.1549 33.172C69.3869 33.556 68.5349 33.82 67.5989 33.964C66.6629 34.084 65.6909 34.144 64.6829 34.144C63.6989 34.168 62.7029 34.144 61.6949 34.072C60.7109 34 59.7869 33.952 58.9229 33.928C58.7789 33.928 58.6349 33.928 58.4909 33.928C58.3709 33.928 58.2509 33.904 58.1309 33.856C57.9869 29.704 57.9509 25.588 58.0229 21.508C58.0949 17.404 58.0949 13.264 58.0229 9.088L58.0589 9.052C59.0189 8.788 60.0389 8.584 61.1189 8.44C62.1989 8.296 63.2669 8.248 64.3229 8.296C65.3789 8.344 66.3869 8.5 67.3469 8.764C68.3309 9.028 69.1949 9.46 69.9389 10.06C70.6829 10.636 71.2709 11.392 71.7029 12.328C72.1349 13.24 72.3509 14.368 72.3509 15.712C72.3509 16.72 72.1709 17.704 71.8109 18.664C71.4749 19.624 71.0669 20.512 70.5869 21.328C70.4909 21.496 70.4669 21.628 70.5149 21.724ZM66.5189 28.708C66.8549 28.564 67.1429 28.348 67.3829 28.06C67.6469 27.7 67.7669 27.268 67.7429 26.764C67.7429 26.26 67.6589 25.804 67.4909 25.396C67.3469 25.108 67.1309 24.856 66.8429 24.64C66.5549 24.4 66.2549 24.244 65.9429 24.172C65.4869 24.052 65.0189 23.992 64.5389 23.992C64.0589 23.968 63.5909 23.932 63.1349 23.884C63.0389 24.244 62.9549 24.652 62.8829 25.108C62.8109 25.564 62.7629 26.032 62.7389 26.512C62.7389 26.968 62.7749 27.412 62.8469 27.844C62.9189 28.276 63.0509 28.636 63.2429 28.924L63.3149 28.96C63.6509 28.96 63.9989 28.972 64.3589 28.996C64.7429 28.996 65.1149 28.984 65.4749 28.96C65.8589 28.912 66.2069 28.828 66.5189 28.708ZM66.5549 18.628C66.8909 18.436 67.1549 18.16 67.3469 17.8C67.5149 17.512 67.6589 17.176 67.7789 16.792C67.8989 16.408 67.8629 16.024 67.6709 15.64C67.4789 15.256 67.2269 14.968 66.9149 14.776C66.6269 14.56 66.2909 14.404 65.9069 14.308C65.4269 14.212 64.9109 14.164 64.3589 14.164C63.8309 14.14 63.3869 14.224 63.0269 14.416C63.0749 14.968 63.0509 15.64 62.9549 16.432C62.8829 17.224 62.9549 18.04 63.1709 18.88C63.5309 18.928 63.9149 18.964 64.3229 18.988C64.7309 19.012 65.1269 19 65.5109 18.952C65.8949 18.904 66.2429 18.796 66.5549 18.628ZM75.3951 31.588L74.8191 31.012L74.4231 30.652C75.5751 29.716 76.6911 28.684 77.7711 27.556C78.8511 26.428 79.9551 25.372 81.0831 24.388C80.6031 23.812 80.0751 23.212 79.4991 22.588C78.9231 21.964 78.3351 21.352 77.7351 20.752C77.1591 20.128 76.6071 19.54 76.0791 18.988C75.5511 18.436 75.1071 17.932 74.7471 17.476C74.9631 17.332 75.1911 17.152 75.4311 16.936C75.6711 16.696 75.8991 16.456 76.1151 16.216C76.3551 15.976 76.5831 15.748 76.7991 15.532C77.0391 15.292 77.2671 15.112 77.4831 14.992C77.8191 15.328 78.1551 15.676 78.4911 16.036C78.8271 16.372 79.1751 16.732 79.5351 17.116C80.0871 17.692 80.6631 18.292 81.2631 18.916C81.8631 19.516 82.4631 20.128 83.0631 20.752C83.6631 21.352 84.2391 21.952 84.7911 22.552C85.3431 23.128 85.8471 23.704 86.3031 24.28C85.6071 25.192 84.8751 26.032 84.1071 26.8C83.3631 27.568 82.6071 28.312 81.8391 29.032C81.0711 29.752 80.2911 30.46 79.4991 31.156C78.7311 31.828 77.9871 32.536 77.2671 33.28L77.2311 33.316C76.8711 33.004 76.5831 32.752 76.3671 32.56C76.1511 32.344 75.9711 32.176 75.8271 32.056C75.7071 31.936 75.6111 31.84 75.5391 31.768C75.4911 31.696 75.4431 31.636 75.3951 31.588Z" fill="#00ADB5"/>
</svg>
